<svg xmlns="http://www.w3.org/2000/svg" viewBox="0 0 140.125 21.964"><path d="M1168.771-2672.28a.927.927,0,0,1-.595.822l-14.452,6.366a2.442,2.442,0,0,1-.807.208,1.282,1.282,0,0,1-.616-.116l-9.748-4.242,5.415-2.34a.736.736,0,0,0,.438-.965.675.675,0,0,0-.038-.078.958.958,0,0,0-1.2-.357l-6.629,2.869-3.079-1.339a.915.915,0,0,1-.585-.822.918.918,0,0,1,.585-.831l14.839-6.456a1.226,1.226,0,0,1,.523-.116,1.265,1.265,0,0,1,.523.116l14.829,6.456A.928.928,0,0,1,1168.771-2672.28Z" transform="translate(-1136.875 2679.677)" fill="#ffc600"/><path d="M1167.572-2642.314a11.684,11.684,0,0,1-1.5.633,3.817,3.817,0,0,1-1.172.264.44.44,0,0,1-.067,0,2.815,2.815,0,0,1-1.048-.308c-1.027-.437-1.538-.657-1.76-.774q-.006,0-3.958-1.76c-.682-.3-1.273-.565-1.738-.769v3.552c0,3.076,3.8,5.574,8.507,5.574s8.506-2.5,8.506-5.574v-3.652C1170.931-2643.98,1169.991-2643.431,1167.572-2642.314Z" transform="translate(-1148.883 2657.87)" fill="#ffc600"/><path d="M1147.727-2648.924c-.01.717-.01,2.413,0,3.306,0,.009.009.019.009.027l-.009.958a.936.936,0,0,0,.882.995h0a.916.916,0,0,0,.856-.978l.028-3.4v-.054Z" transform="translate(-1143.569 2660.264)" fill="#fff"/><g transform="translate(37.388 1.279)"><path d="M1245.08-2652.537a1.106,1.106,0,0,1,.329-.15,1.145,1.145,0,0,1,.225-.028.441.441,0,0,1,.335.2l.278.367.82,1.124a.8.8,0,0,1,.092.161.392.392,0,0,1,.034.15.456.456,0,0,1-.126.317,2,2,0,0,1-.339.284,9.283,9.283,0,0,1-2.119,1.112,7.14,7.14,0,0,1-2.5.423,7.592,7.592,0,0,1-1.992-.261,7.748,7.748,0,0,1-1.8-.734,7.635,7.635,0,0,1-1.53-1.135,7.472,7.472,0,0,1-1.2-1.474,7.017,7.017,0,0,1-.773-1.746,6.935,6.935,0,0,1-.271-1.946,6.934,6.934,0,0,1,.271-1.947,7.025,7.025,0,0,1,.773-1.747,7.476,7.476,0,0,1,1.2-1.473,7.64,7.64,0,0,1,1.53-1.135,7.8,7.8,0,0,1,1.8-.735,7.571,7.571,0,0,1,1.992-.26,7.659,7.659,0,0,1,2.425.378,7.417,7.417,0,0,1,2.031,1.023l-.012-.011a3.482,3.482,0,0,0,.317.272.422.422,0,0,1,.157.361,1.459,1.459,0,0,1-.006.156.314.314,0,0,1-.063.167l-.948,1.39a.636.636,0,0,1-.508.333.738.738,0,0,1-.439-.189,5,5,0,0,0-1.374-.778,4.485,4.485,0,0,0-1.617-.3,4.015,4.015,0,0,0-1.692.362,4.578,4.578,0,0,0-1.391.978,4.624,4.624,0,0,0-.948,1.435,4.366,4.366,0,0,0-.347,1.718,4.385,4.385,0,0,0,.347,1.735,4.492,4.492,0,0,0,.941,1.412,4.463,4.463,0,0,0,1.392.951,4.167,4.167,0,0,0,1.7.35,4.045,4.045,0,0,0,1.7-.326A6.591,6.591,0,0,0,1245.08-2652.537Z" transform="translate(-1234.546 2667.977)" fill="#fff"/><path d="M1282.4-2650.412a8.3,8.3,0,0,1-2.223,1.312,7.121,7.121,0,0,1-2.651.479,7.779,7.779,0,0,1-2.956-.567,7.812,7.812,0,0,1-2.449-1.557,7.5,7.5,0,0,1-1.669-2.319,6.716,6.716,0,0,1-.618-2.865,7.168,7.168,0,0,1,.254-1.913,7.277,7.277,0,0,1,.722-1.73,7.249,7.249,0,0,1,1.137-1.48,7.174,7.174,0,0,1,1.5-1.151,7.435,7.435,0,0,1,1.79-.74,7.75,7.75,0,0,1,2.038-.261,7.336,7.336,0,0,1,1.733.206,7.8,7.8,0,0,1,1.625.587,7.712,7.712,0,0,1,1.437.917,6.777,6.777,0,0,1,1.178,1.218,6.483,6.483,0,0,1,1.015,2.013,8.292,8.292,0,0,1,.323,2.392,4.153,4.153,0,0,1-.029.54.655.655,0,0,1-.144.35.668.668,0,0,1-.347.2,2.649,2.649,0,0,1-.646.062h-10.241a3.685,3.685,0,0,0,.572,1.418,4.319,4.319,0,0,0,1,1.043,4.275,4.275,0,0,0,1.259.645,4.474,4.474,0,0,0,1.363.217,4.841,4.841,0,0,0,1-.1,5.332,5.332,0,0,0,.9-.267,5.04,5.04,0,0,0,.767-.384,4.531,4.531,0,0,0,.618-.451.01.01,0,0,1,.008-.011h0a1.6,1.6,0,0,1,.266-.2.525.525,0,0,1,.265-.073.534.534,0,0,1,.236.065.828.828,0,0,1,.26.222q.312.368.531.613t.358.411a1.713,1.713,0,0,1,.2.289.531.531,0,0,1,.063.244A.837.837,0,0,1,1282.4-2650.412Zm-5.127-10.034a3.8,3.8,0,0,0-1.328.239,4.5,4.5,0,0,0-1.184.652,4.57,4.57,0,0,0-.935.968,3.878,3.878,0,0,0-.583,1.2h8.176a4.219,4.219,0,0,0-.56-1.239,4.036,4.036,0,0,0-.906-.968,4.062,4.062,0,0,0-1.213-.628,4.7,4.7,0,0,0-1.464-.226Z" transform="translate(-1256.327 2668)" fill="#fff"/><path d="M1314.157-2662.293a.57.57,0,0,1,.226-.489.815.815,0,0,1,.493-.167h1.472a.562.562,0,0,1,.44.167,1.126,1.126,0,0,1,.232.411,2.728,2.728,0,0,1,.116.528c.023.189.05.362.081.517a6.673,6.673,0,0,1,.573-.673,3.909,3.909,0,0,1,.722-.587,3.767,3.767,0,0,1,.912-.412,3.949,3.949,0,0,1,1.155-.155,6.694,6.694,0,0,1,1.039.072,4.834,4.834,0,0,1,.88.222,4.754,4.754,0,0,1,.826.391q.406.239.865.562a1.667,1.667,0,0,1,.339.278.523.523,0,0,1,.144.367c-.007.06-.02.123-.034.189a.588.588,0,0,1-.092.2l-.948,1.446a.551.551,0,0,1-.213.161.566.566,0,0,1-.214.051.772.772,0,0,1-.358-.089q-.381-.2-.693-.378a6.028,6.028,0,0,0-.609-.306,3.643,3.643,0,0,0-.618-.2,3.2,3.2,0,0,0-.71-.072,2.516,2.516,0,0,0-1.737.634,3.164,3.164,0,0,0-.953,1.747v8.387q0,.668-.718.667h-1.9q-.718,0-.718-.667Z" transform="translate(-1283.681 2667.967)" fill="#fff"/><path d="M1352.288-2654.445a5.828,5.828,0,0,1-1.715-.267,4.205,4.205,0,0,1-1.4-.74,3.5,3.5,0,0,1-.941-1.191,3.607,3.607,0,0,1-.347-1.609v-7.518h-1.328a.754.754,0,0,1-.5-.144.6.6,0,0,1-.168-.477v-1.594a.544.544,0,0,1,.168-.456.8.8,0,0,1,.5-.131h1.328q0-.587.005-1.174t.006-1.173a.444.444,0,0,1,.144-.35,1.3,1.3,0,0,1,.445-.228l.474-.162q.277-.094.572-.183t.572-.15a2.2,2.2,0,0,1,.462-.061.5.5,0,0,1,.468.188.991.991,0,0,1,.11.5q0,.7-.005,1.4t-.007,1.395h1.663a.659.659,0,0,1,.462.149.615.615,0,0,1,.162.471v1.518a.68.68,0,0,1-.162.509.638.638,0,0,1-.462.155h-1.663v2.111q0,.384.005.718t.005.724v2.122a.161.161,0,0,1-.005.045.194.194,0,0,0-.005.044v1.459a1.523,1.523,0,0,0,.3,1.058,1.271,1.271,0,0,0,.97.326.469.469,0,0,1,.381.167.606.606,0,0,1,.135.4v1.546a.6.6,0,0,1-.167.451A.646.646,0,0,1,1352.288-2654.445Z" transform="translate(-1303.267 2673.59)" fill="#fff"/><path d="M1373.269-2675.272a.59.59,0,0,1,.511-.668.645.645,0,0,1,.171,0h1.94a.771.771,0,0,1,.519.168.621.621,0,0,1,.2.5v1.664a.764.764,0,0,1-.185.485.629.629,0,0,1-.519.229h-1.94a.623.623,0,0,1-.693-.717Zm0,4.926a.7.7,0,0,1,.173-.484.644.644,0,0,1,.509-.2h1.917a.711.711,0,0,1,.26.05.736.736,0,0,1,.237.144.911.911,0,0,1,.173.217.535.535,0,0,1,.067.267v12.781q0,.668-.728.667h-1.916a.606.606,0,0,1-.693-.493.576.576,0,0,1,0-.174Z" transform="translate(-1320.162 2676.044)" fill="#fff"/><path d="M1390.864-2671.146a5.894,5.894,0,0,1,.312-1.908,4.85,4.85,0,0,1,.913-1.618,4.414,4.414,0,0,1,1.472-1.117,4.527,4.527,0,0,1,1.981-.417h.116a.678.678,0,0,1,.519.2.734.734,0,0,1,.185.528v1.535a.84.84,0,0,1-.179.546.6.6,0,0,1-.491.222,1.532,1.532,0,0,0-.439.084,1.74,1.74,0,0,0-.508.26,1.621,1.621,0,0,0-.416.457,1.213,1.213,0,0,0-.173.657v1.8h1.671a.745.745,0,0,1,.519.167.717.717,0,0,1,.185.555v1.37a.819.819,0,0,1-.185.587.681.681,0,0,1-.519.2h-1.674v9.266a.632.632,0,0,1-.242.539.858.858,0,0,1-.531.183h-1.79a.7.7,0,0,1-.537-.206.73.73,0,0,1-.19-.517v-9.266h-1.143a.763.763,0,0,1-.542-.2.764.764,0,0,1-.207-.587v-1.369a.671.671,0,0,1,.207-.556.84.84,0,0,1,.542-.167h1.143Z" transform="translate(-1329.856 2676.209)" fill="#fff"/><path d="M1413.73-2675.272a.59.59,0,0,1,.511-.668.642.642,0,0,1,.17,0h1.94a.773.773,0,0,1,.52.168.623.623,0,0,1,.2.5v1.664a.768.768,0,0,1-.185.485.63.63,0,0,1-.519.229h-1.94a.623.623,0,0,1-.693-.717Zm0,4.926a.7.7,0,0,1,.173-.484.644.644,0,0,1,.508-.2h1.917a.713.713,0,0,1,.26.05.743.743,0,0,1,.236.144.875.875,0,0,1,.173.217.531.531,0,0,1,.068.267v12.781q0,.668-.728.667h-1.917a.606.606,0,0,1-.693-.494.57.57,0,0,1,0-.173Z" transform="translate(-1345.135 2676.044)" fill="#fff"/><path d="M1442.87-2650.412a8.311,8.311,0,0,1-2.223,1.312,7.119,7.119,0,0,1-2.65.479,7.78,7.78,0,0,1-2.956-.567,7.812,7.812,0,0,1-2.448-1.557,7.487,7.487,0,0,1-1.669-2.319,6.7,6.7,0,0,1-.618-2.865,7.153,7.153,0,0,1,.254-1.913,7.258,7.258,0,0,1,.722-1.73,7.223,7.223,0,0,1,1.137-1.48,7.166,7.166,0,0,1,1.5-1.151,7.445,7.445,0,0,1,1.791-.74,7.753,7.753,0,0,1,2.038-.261,7.352,7.352,0,0,1,1.731.206,7.8,7.8,0,0,1,1.625.587,7.719,7.719,0,0,1,1.437.917,6.791,6.791,0,0,1,1.178,1.218,6.492,6.492,0,0,1,1.016,2.013,8.318,8.318,0,0,1,.323,2.392,4.241,4.241,0,0,1-.029.54.656.656,0,0,1-.144.35.666.666,0,0,1-.346.2,2.647,2.647,0,0,1-.646.062h-10.244a3.671,3.671,0,0,0,.572,1.418,4.316,4.316,0,0,0,1,1.043,4.27,4.27,0,0,0,1.259.645,4.475,4.475,0,0,0,1.363.217,4.85,4.85,0,0,0,1-.1,5.332,5.332,0,0,0,.9-.267,5.052,5.052,0,0,0,.767-.384,4.477,4.477,0,0,0,.618-.451.011.011,0,0,1,.01-.011h0a1.594,1.594,0,0,1,.265-.2.526.526,0,0,1,.265-.073.536.536,0,0,1,.237.065.825.825,0,0,1,.26.222q.312.368.532.613t.358.411a1.72,1.72,0,0,1,.2.289.533.533,0,0,1,.064.244A.838.838,0,0,1,1442.87-2650.412Zm-5.127-10.034a3.8,3.8,0,0,0-1.328.239,4.494,4.494,0,0,0-1.184.652,4.558,4.558,0,0,0-.936.968,3.882,3.882,0,0,0-.583,1.2h8.176a4.205,4.205,0,0,0-.561-1.239,4.018,4.018,0,0,0-.906-.968,4.061,4.061,0,0,0-1.213-.628A4.685,4.685,0,0,0,1437.743-2660.445Z" transform="translate(-1355.37 2668)" fill="#fff"/><path d="M1475.462-2662.293a.57.57,0,0,1,.226-.489.814.814,0,0,1,.493-.167h1.472a.564.564,0,0,1,.441.167,1.139,1.139,0,0,1,.232.411,2.7,2.7,0,0,1,.116.528c.023.189.05.362.082.517a6.623,6.623,0,0,1,.573-.673,3.922,3.922,0,0,1,.722-.587,3.766,3.766,0,0,1,.913-.412,3.949,3.949,0,0,1,1.155-.155,6.692,6.692,0,0,1,1.039.072,4.832,4.832,0,0,1,.88.222,4.749,4.749,0,0,1,.826.391q.406.239.866.562a1.662,1.662,0,0,1,.338.278.521.521,0,0,1,.144.367c-.007.06-.02.123-.034.189a.582.582,0,0,1-.092.2l-.947,1.446a.552.552,0,0,1-.213.161.569.569,0,0,1-.214.051.774.774,0,0,1-.358-.089q-.38-.2-.692-.378a6.013,6.013,0,0,0-.609-.306,3.641,3.641,0,0,0-.618-.2,3.2,3.2,0,0,0-.71-.072,2.517,2.517,0,0,0-1.738.634,3.171,3.171,0,0,0-.952,1.747v8.387q0,.668-.718.667h-1.9q-.719,0-.719-.667Z" transform="translate(-1383.24 2667.967)" fill="#fff"/></g></svg>