<svg xmlns="http://www.w3.org/2000/svg" xmlns:xlink="http://www.w3.org/1999/xlink" viewBox="0 0 100.473 90.49"><defs><clipPath id="a"><ellipse cx="8.775" cy="15.199" rx="8.775" ry="15.199" transform="translate(0 8.776) rotate(-30.001)" fill="none"/></clipPath></defs><g transform="translate(-1038.64 -206.064)"><g transform="translate(834.298 133.251)"><g transform="translate(204.342 147.357)"><path d="M218.185,360.8a10.707,10.707,0,0,1-8.92,0c-2.463-1.3-2.463-3.4,0-4.7a10.708,10.708,0,0,1,8.92,0C220.648,357.4,220.648,359.5,218.185,360.8Z" transform="translate(-206.55 -349.995)" fill="#585858" opacity="0.5"/><path d="M218.694,345.61v-1.838h-.38a4.432,4.432,0,0,0-1.721-1.469,12.18,12.18,0,0,0-10.148,0,4.432,4.432,0,0,0-1.721,1.469h-.38V345.6h0c0,.971.695,1.942,2.1,2.682a12.183,12.183,0,0,0,10.148,0C217.993,347.545,218.694,346.577,218.694,345.61Z" transform="translate(-204.343 -339.993)" fill="#fd8800"/><ellipse cx="7.175" cy="3.779" rx="7.175" ry="3.779" fill="#ffaf6b"/><path d="M216.609,353.3a12.182,12.182,0,0,1-10.148,0,3.35,3.35,0,0,1-2.091-2.552c-.06,1.007.632,2.024,2.091,2.793a12.18,12.18,0,0,0,10.148,0c1.459-.768,2.152-1.785,2.091-2.792A3.349,3.349,0,0,1,216.609,353.3Z" transform="translate(-204.36 -346.849)" fill="#fff"/><g transform="translate(3.528 1.987)"><path d="M217.03,347.017a.3.3,0,0,1-.189-.241l.007-2.462c0-.188.29-.34.647-.34s.645.153.645.341l-.006,2.042,6.5-.726c.349-.039.692.078.766.262s-.149.364-.5.4l-7.277.813a1.117,1.117,0,0,1-.541-.069Z" transform="translate(-216.841 -343.974)" fill="#fff"/></g></g><g transform="translate(216.998 104.77)"><g transform="translate(0 0)"><path d="M337.593,239.965l-24.184-14a5.7,5.7,0,0,0-5.13.205l-50.756,29.21c-1.519.874-1.686,2.2-.372,2.961l24.184,14a5.7,5.7,0,0,0,5.13-.206l50.756-29.21C338.74,242.052,338.907,240.726,337.593,239.965Z" transform="translate(-254.267 -214.323)" fill="#585858" opacity="0.5"/><path d="M275.564,248.208,250.4,233.633a2.019,2.019,0,0,1-1.185-1.8l-.006,0,.01-3.652,1.4,1.64c.091-.06.182-.12.281-.177l51.487-29.631a7.67,7.67,0,0,1,6.9-.277l24.815,14.37c.5-.55,1.555-1.711,1.555-1.711l-.012,3.572h0a2.778,2.778,0,0,1-1.69,2.328l-51.487,29.631A7.67,7.67,0,0,1,275.564,248.208Z" transform="translate(-249.199 -195.377)" fill="#585858"/><path d="M293.491,339.076l1.45.837c.192.111.349-.007.349-.264h0a.835.835,0,0,0-.349-.666l-1.45-.837c-.193-.111-.349.007-.349.264h0A.834.834,0,0,0,293.491,339.076Z" transform="translate(-280.736 -295.186)"/><path d="M377.518,200.019a7.67,7.67,0,0,1,6.9-.277l24.815,14.37c.5-.55,1.555-1.711,1.555-1.711l-.012,3.572h0a2.778,2.778,0,0,1-1.69,2.328L357.6,247.932a7.959,7.959,0,0,1-3.716.965l.049-35.3Z" transform="translate(-324.334 -195.377)"/><path d="M334.488,201.307l-25.168-14.575a7.671,7.671,0,0,0-6.9.277L250.931,216.64c-2.044,1.176-2.269,2.96-.5,3.984L275.6,235.2a7.67,7.67,0,0,0,6.9-.276l51.487-29.631C336.031,204.114,336.255,202.331,334.488,201.307Z" transform="translate(-249.223 -186.039)" fill="#c3c3c3"/><path d="M275.541,279.511l-25.169-14.575a1.953,1.953,0,0,1-1.165-2,2.1,2.1,0,0,0,1.184,1.613l25.169,14.575a7.67,7.67,0,0,0,6.9-.276l51.487-29.631a3.063,3.063,0,0,0,1.666-1.981,2.74,2.74,0,0,1-1.685,2.371l-51.487,29.631A7.67,7.67,0,0,1,275.541,279.511Z" transform="translate(-249.184 -229.962)" fill="#fff"/><path d="M337.593,205.245l-24.184-14a5.7,5.7,0,0,0-5.13.205l-50.756,29.21c-1.519.874-1.686,2.2-.372,2.961l24.184,14a5.7,5.7,0,0,0,5.13-.205l50.756-29.21C338.74,207.332,338.907,206.006,337.593,205.245Z" transform="translate(-254.267 -189.403)" fill="#e6e6e6"/></g><g transform="translate(12.646 30.464)"><path d="M323.276,304.458l-17.066-9.853,1.089-.629,17.066,9.853Z" transform="translate(-302.761 -293.976)"/><path d="M302.63,306.65l-8.641-4.989,1.089-.629,8.641,4.989Z" transform="translate(-293.989 -299.041)"/><path d="M332.336,323.8l-2.8-1.618,1.089-.629,2.8,1.618Z" transform="translate(-319.501 -313.77)" fill="#ff0016"/><path d="M347.328,332.456l-2.8-1.618,1.089-.629,2.8,1.618Z" transform="translate(-330.262 -319.983)" fill="#fff"/><path d="M307.113,302.182l-7.013-4.049,1.089-.629,7.013,4.049Z" transform="translate(-298.375 -296.509)" fill="#fff"/><path d="M337.444,319.694l-7.013-4.049,1.089-.629,7.013,4.049Z" transform="translate(-320.146 -309.078)"/><g transform="translate(10.572 1.075)"><path d="M332.982,298.672a1.4,1.4,0,0,1-1.271,0,.387.387,0,0,1,0-.734,1.4,1.4,0,0,1,1.271,0A.387.387,0,0,1,332.982,298.672Z" transform="translate(-331.448 -297.786)" fill="#f81629"/><path d="M339.71,302.556a1.406,1.406,0,0,1-1.271,0,.387.387,0,0,1,0-.734,1.4,1.4,0,0,1,1.271,0A.387.387,0,0,1,339.71,302.556Z" transform="translate(-336.277 -300.574)" fill="#f81629"/><path d="M346.438,306.44a1.4,1.4,0,0,1-1.271,0,.387.387,0,0,1,0-.734,1.4,1.4,0,0,1,1.271,0A.387.387,0,0,1,346.438,306.44Z" transform="translate(-341.106 -303.362)" fill="#f81629"/><path d="M353.166,310.325a1.4,1.4,0,0,1-1.271,0,.387.387,0,0,1,0-.733,1.4,1.4,0,0,1,1.271,0A.387.387,0,0,1,353.166,310.325Z" transform="translate(-345.935 -306.151)" fill="#f81629"/><path d="M359.894,314.209a1.4,1.4,0,0,1-1.271,0,.387.387,0,0,1,0-.734,1.4,1.4,0,0,1,1.271,0A.387.387,0,0,1,359.894,314.209Z" transform="translate(-350.764 -308.938)" fill="#f81629"/></g></g><g transform="translate(54.808 6.168)"><path d="M491.722,236.7l-2.873-1.659,1.117-.645,2.873,1.659Z" transform="translate(-476.014 -226.913)" fill="#ff424d"/><path d="M505.9,244.881l-2.873-1.659,1.117-.645,2.873,1.659Z" transform="translate(-486.189 -232.788)" fill="#fff"/><path d="M446.248,210.2l-2.873-1.659,1.117-.645,2.873,1.659Z" transform="translate(-443.375 -207.892)" fill="#fff"/><path d="M486.584,240.964l-4-2.31,1.117-.645,4,2.31Z" transform="translate(-471.517 -229.509)" fill="#fff"/><path d="M502.475,250.139l-1.756-1.014,1.117-.645,1.756,1.014Z" transform="translate(-484.535 -237.025)"/></g></g><g transform="translate(295.088 138.452)"><g transform="translate(0)"><path d="M530.733,343.52l-4.863-2.808,4.863-2.808,4.863,2.808Z" transform="translate(-525.869 -328.725)" fill="#585858" opacity="0.5"/><path d="M547.964,320.942,543.1,323.75v-5.615l4.863-2.808Z" transform="translate(-538.237 -312.519)" fill="#ff2626"/><path d="M530.733,310.994l-4.863-2.808,4.863-2.808,4.863,2.808Z" transform="translate(-525.87 -305.379)" fill="#ff6b6b"/><path d="M530.733,323.75l-4.863-2.808v-5.615l4.863,2.808Z" transform="translate(-525.87 -312.519)" fill="#ff6b6b"/></g><path d="M533.436,328.431l-1.36-.785v-1.571l1.36.785Z" transform="translate(-530.324 -320.234)" fill="#fff"/></g><g transform="translate(237.979 72.814)"><g transform="translate(0)"><path d="M336.765,78.993l-10.533-6.081a.539.539,0,0,0-.544-.044v-.007l-1.022.59.718.262v7.67A2.029,2.029,0,0,0,326.233,83L336.3,88.816v.9l1.032-.594-.006,0a.751.751,0,0,0,.286-.675V80.612A2.03,2.03,0,0,0,336.765,78.993Z" transform="translate(-324.345 -72.814)" fill="#ff2626"/><path d="M334.905,91.2l-10.533-6.081a2.029,2.029,0,0,1-.847-1.619V75.67c0-.624.379-.911.847-.641l10.533,6.081a2.029,2.029,0,0,1,.847,1.619v7.832C335.753,91.186,335.373,91.472,334.905,91.2Z" transform="translate(-323.525 -74.331)" fill="#ff424d"/><path d="M336.176,80.452,325.643,74.37a.493.493,0,0,0-.708.1.593.593,0,0,1,.449.084l10.533,6.081a2.03,2.03,0,0,1,.848,1.619v7.832a.945.945,0,0,1-.14.539c.238-.062.4-.322.4-.725V82.071A2.03,2.03,0,0,0,336.176,80.452Z" transform="translate(-324.537 -73.858)" fill="#fff"/></g><g transform="translate(2.968 6.763)"><path d="M335.462,98.1c0,.453-.318.637-.711.41a1.571,1.571,0,0,1-.711-1.231c0-.453.318-.637.711-.41A1.571,1.571,0,0,1,335.462,98.1Z" transform="translate(-334.041 -96.777)" fill="#fff"/><ellipse cx="0.58" cy="1.005" rx="0.58" ry="1.005" transform="translate(1.859 1.58) rotate(-30.001)" fill="#fff"/><ellipse cx="0.58" cy="1.005" rx="0.58" ry="1.005" transform="translate(4.012 2.823) rotate(-30.001)" fill="#fff"/></g></g><path d="M371.871,256.2l17.284-9.978c1.871-1.08,1.636-2.967-.524-4.215h0a8.114,8.114,0,0,0-7.3-.3l-17.283,9.979c-1.871,1.08-1.637,2.967.524,4.214h0A8.113,8.113,0,0,0,371.871,256.2Z" transform="translate(-113.724 -120.701)" fill="#585858"/><g transform="translate(224.948 82.926)"><g transform="translate(37.929 20.658)"><path d="M416.492,197.435l0-2.031,2.4-12.1-2.373-1.466-4.753,2.624-.034,15.6a1.952,1.952,0,0,0,1,1.991h0l2.114,1.328.265-1,.363-1.83A5.8,5.8,0,0,0,416.492,197.435Z" transform="translate(-411.739 -181.835)" fill="#7b7b7b"/><path d="M422.515,207.061h0c-1.312.725-2.374-.085-2.37-1.808l.034-15.6,4.753-2.624-.034,15.6A5.489,5.489,0,0,1,422.515,207.061Z" transform="translate(-417.772 -185.563)"/></g><g transform="translate(25.963 0)"><path d="M5.069,0c2.8,0,5.069,3.931,5.069,8.78s-2.27,8.78-5.069,8.78S0,13.63,0,8.78,2.27,0,5.069,0Z" transform="translate(14.55 5.07) rotate(-30.001)" fill="#fd8800"/><path d="M397.125,132.976l-18.068,10.361-9.713-14.59,18.824-10.871Z" transform="translate(-369.344 -115.269)" fill="#fd8800"/></g><path d="M355.24,145.658a14.115,14.115,0,0,0-6.386-11.061,4.71,4.71,0,0,0-4.187-.608l0,0-.023.012-.028.014c-.049.022-.1.046-.146.071a44.737,44.737,0,0,1-21.474,4.555l-2.1-.082,17.129,29.353.928-1.793a44.739,44.739,0,0,1,14.392-16.307C354.512,149.149,355.24,147.712,355.24,145.658Z" transform="translate(-308.601 -126.647)" fill="#e6e6e6"/><path d="M326.35,173.122c0-7.812-5.485-17.311-12.25-21.217-3.374-1.948-6.429-2.137-8.645-.868h0l-.012.007-.016.01-2.01,1.178.7-.147c-1.429,1.489-2.27,3.835-2.27,6.893,0,7.812,5.484,17.311,12.25,21.217,2.655,1.533,5.113,1.976,7.119,1.477l-.318.468,1.85-1.082.029-.017.067-.039h0C325.013,179.7,326.35,176.979,326.35,173.122Z" transform="translate(-294.936 -138.493)" fill="#c3c3c3"/><path d="M324.917,176.086c0-7.812-5.485-17.311-12.25-21.217-3.328-1.922-6.346-2.131-8.554-.918l-.307.18c-.105.066-.208.137-.309.21l.623-.13c-1.429,1.489-2.27,3.835-2.27,6.893,0,7.812,5.484,17.311,12.25,21.217,2.655,1.533,5.113,1.976,7.119,1.477l-.29.427C323.379,183.055,324.917,180.222,324.917,176.086Z" transform="translate(-294.936 -140.621)" fill="#fff"/><ellipse cx="10.002" cy="17.324" rx="10.002" ry="17.324" transform="translate(0 18.629) rotate(-30.001)" fill="#585858"/><path d="M8.775,0c4.846,0,8.775,6.8,8.775,15.2,0,6.967-2.707,12.84-6.466,14.667a5.308,5.308,0,0,1-2.31.532C3.929,30.4,0,23.594,0,15.2S3.929,0,8.775,0Z" transform="translate(2.125 19.856) rotate(-30.001)" fill="#c3c3c3"/><path d="M311.9,187.855c-5.936-3.427-10.748-11.761-10.748-18.615,0-3.6,1.328-6.073,3.447-7.116-2.41.884-3.949,3.456-3.949,7.331,0,6.854,4.812,15.188,10.748,18.615,2.819,1.627,5.384,1.855,7.3.911C316.85,189.661,314.483,189.345,311.9,187.855Z" transform="translate(-294.078 -147.029)" fill="#fff"/><g transform="translate(2.125 11.08)"><g transform="translate(0 0)" clip-path="url(#a)"><g transform="translate(12.164 2.924)"><path d="M333.035,170.318,348.63,158.26l5.663,9.824-18.3,7.511Z" transform="translate(-331.609 -158.26)" fill="#ff5961"/><path d="M1.752,0C2.72,0,3.5,1.359,3.5,3.035S2.72,6.071,1.752,6.071,0,4.712,0,3.035.785,0,1.752,0Z" transform="translate(0 12.875) rotate(-30.002)" fill="#ff0016"/></g></g></g><g transform="translate(38.495 31.764)"><path d="M414.406,225.814l-.084-.048a1.35,1.35,0,0,1-.567-1.076l-.009-3.008c0-.415.251-.607.563-.428l.084.048a1.351,1.351,0,0,1,.567,1.076l.009,3.008C414.97,225.8,414.718,225.993,414.406,225.814Z" transform="translate(-413.746 -221.186)" fill="#fff"/></g></g></g></g></svg>