<svg xmlns="http://www.w3.org/2000/svg" viewBox="0 0 50.717 49.969"><g transform="translate(-588 -962.126)"><path d="M31.514,48.822H4.924V40.452a7.4,7.4,0,0,1,7.386-7.386H22.483a14.645,14.645,0,1,0-10.892-4.924A12.32,12.32,0,0,0,0,40.452V51.284a2.462,2.462,0,0,0,2.462,2.462H31.514a2.462,2.462,0,1,0,0-4.924ZM22.483,8.84a9.661,9.661,0,0,1,.276,19.3h-.768a9.661,9.661,0,0,1,.492-19.3Z" transform="translate(588 958.349)" fill="#f77e16"/><path d="M330.4,354.08H315.627a2.462,2.462,0,0,1,0-4.924H330.4a2.462,2.462,0,0,1,0,4.924Z" transform="translate(305.856 647.183)" fill="#ffc600"/><path d="M390.191,294.288a2.462,2.462,0,0,1-2.462-2.462V277.054a2.462,2.462,0,0,1,4.924,0v14.772A2.462,2.462,0,0,1,390.191,294.288Z" transform="translate(238.679 714.36)" fill="#ffc600"/></g></svg>