<svg xmlns="http://www.w3.org/2000/svg" viewBox="0 0 61.341 67.423"><g transform="translate(3.034 1.677)"><path d="M-1405.093,4370.52s-3.108-3.836-11.1-5.339-17.361-.773-20.856-.672-5.685,4.732-3.856,6.011,6.954,2.768,6.954,2.768l14.4,1.974s-15.477-.729-18.987-2.565-13.9-12.377-13.9-12.377-2.334-2.42-5.392.507,0,6.122,0,6.122l10.288,10.879s6.923,6.754,9,7.732,20.309.515,20.309.515h13.131" transform="translate(1459.18 -4323.459)" fill="none" stroke="#f77e16" stroke-linecap="round" stroke-width="6"/><g transform="translate(25.621)"><g transform="translate(0 0)" fill="none"><path d="M9.636,0a9.662,9.662,0,0,1,9.636,9.688,9.476,9.476,0,0,1-9.636,9.468A9.476,9.476,0,0,1,0,9.688,9.662,9.662,0,0,1,9.636,0Z" stroke="none"/><path d="M 9.636231422424316 4.999999046325684 C 7.079801559448242 4.999999046325684 5.000000953674316 7.103188514709473 5.000000953674316 9.688348770141602 C 5.000000953674316 11.24383926391602 5.712771415710449 12.26445865631104 6.310711860656738 12.84674835205078 C 7.177921295166016 13.69124889373779 8.358951568603516 14.15633869171143 9.636231422424316 14.15633869171143 C 10.91351127624512 14.15633869171143 12.09454154968262 13.69124889373779 12.96175193786621 12.84674835205078 C 13.55969142913818 12.26445865631104 14.2724609375 11.24383926391602 14.2724609375 9.688348770141602 C 14.2724609375 7.103188514709473 12.19266128540039 4.999999046325684 9.636231422424316 4.999999046325684 M 9.636231422424316 -1.9073486328125e-06 C 14.95817184448242 -1.9073486328125e-06 19.2724609375 4.337618827819824 19.2724609375 9.688348770141602 C 19.2724609375 15.03907871246338 14.95817184448242 19.15633964538574 9.636231422424316 19.15633964538574 C 4.314291000366211 19.15633964538574 1.9073486328125e-06 15.03907871246338 1.9073486328125e-06 9.688348770141602 C 1.9073486328125e-06 4.337618827819824 4.314291000366211 -1.9073486328125e-06 9.636231422424316 -1.9073486328125e-06 Z" stroke="none" fill="#ffc600"/></g><path d="M-1421.443,4352.461c1.343-.015,3.118.287,3.505-1.432s-.115-3.117,0-5.194.97-3.13,2.78-5.979" transform="translate(1430.733 -4326.195)" fill="none" stroke="#ffc600" stroke-width="5"/><path d="M-1415.391,4352.321c-1.322-.015-3.069.285-3.45-1.419s.113-3.09,0-5.149-1.311-2.691-2.6-6.037" transform="translate(1425.17 -4326.055)" fill="none" stroke="#ffc600" stroke-width="5"/></g><line x2="3.121" y2="1.561" transform="translate(17.699 1.677)" fill="none" stroke="#ffc600" stroke-linecap="round" stroke-width="5"/><line x2="4.682" transform="translate(16.138 10.262)" fill="none" stroke="#ffc600" stroke-linecap="round" stroke-width="5"/><line y1="1.561" x2="3.121" transform="translate(17.699 17.285)" fill="none" stroke="#ffc600" stroke-linecap="round" stroke-width="5"/><line x1="3.121" y2="1.561" transform="translate(48.913 1.677)" fill="none" stroke="#ffc600" stroke-linecap="round" stroke-width="5"/><line x1="3.902" transform="translate(48.913 10.262)" fill="none" stroke="#ffc600" stroke-linecap="round" stroke-width="5"/><line x1="3.121" y1="1.561" transform="translate(48.913 17.285)" fill="none" stroke="#ffc600" stroke-linecap="round" stroke-width="5"/></g></svg>