<svg xmlns="http://www.w3.org/2000/svg" viewBox="0 0 52.494 43.09"><g transform="translate(0)"><path d="M21.528,33.11a21.545,21.545,0,0,1-19-31.667,2.575,2.575,0,0,1,4.542,2.42,16.4,16.4,0,1,0,28.95,0,2.574,2.574,0,0,1,4.458-2.576c.03.051.057.1.083.156A21.543,21.543,0,0,1,21.528,33.11Z" transform="translate(33.11) rotate(90)" fill="#f77e16"/><path d="M21.947,9.971,13.193.764a2.656,2.656,0,0,0-3.728,0L.711,9.971a2.575,2.575,0,0,0,3.728,3.553L8.754,8.982V29.25a2.575,2.575,0,1,0,5.149,0V8.982l4.315,4.531a2.575,2.575,0,1,0,3.728-3.553h0Z" transform="translate(52.494 10.251) rotate(90)" fill="#ffc600"/></g></svg>